<mxfile host="app.diagrams.net" modified="2024-01-07T09:06:34.363Z" agent="Mozilla/5.0 (Windows NT 10.0; Win64; x64) AppleWebKit/537.36 (KHTML, like Gecko) Chrome/120.0.0.0 Safari/537.36 Edg/120.0.0.0" etag="CIMDA-RjwDOnSIvZqpGB" version="22.1.16" type="github">
  <diagram name="Page-1" id="YYMlpaoTQ2fiANM8ZNUl">
    <mxGraphModel dx="1195" dy="789" grid="1" gridSize="10" guides="1" tooltips="1" connect="1" arrows="1" fold="1" page="1" pageScale="1" pageWidth="827" pageHeight="1169" math="0" shadow="0">
      <root>
        <mxCell id="0" />
        <mxCell id="1" parent="0" />
        <mxCell id="S0VNaFS9qRUV_YJMW-pH-2" value="" style="rounded=0;html=1;flipV=1;flipH=1;whiteSpace=wrap;fontFamily=Comic Sans MS;" vertex="1" parent="1">
          <mxGeometry x="210" y="200" width="770" height="100" as="geometry" />
        </mxCell>
        <mxCell id="S0VNaFS9qRUV_YJMW-pH-3" value="" style="rounded=0;whiteSpace=wrap;html=1;flipV=1;flipH=1;fontFamily=Comic Sans MS;" vertex="1" parent="1">
          <mxGeometry x="210" y="385" width="770" height="50" as="geometry" />
        </mxCell>
        <mxCell id="S0VNaFS9qRUV_YJMW-pH-4" value="" style="rounded=0;whiteSpace=wrap;html=1;flipV=1;flipH=1;fontFamily=Comic Sans MS;" vertex="1" parent="1">
          <mxGeometry x="210" y="520" width="770" height="50" as="geometry" />
        </mxCell>
        <mxCell id="S0VNaFS9qRUV_YJMW-pH-8" style="edgeStyle=orthogonalEdgeStyle;rounded=0;orthogonalLoop=1;jettySize=auto;html=1;entryX=0;entryY=0.5;entryDx=0;entryDy=0;fontFamily=Comic Sans MS;" edge="1" parent="1" source="S0VNaFS9qRUV_YJMW-pH-5" target="S0VNaFS9qRUV_YJMW-pH-2">
          <mxGeometry relative="1" as="geometry" />
        </mxCell>
        <mxCell id="S0VNaFS9qRUV_YJMW-pH-12" value="Control" style="edgeLabel;html=1;align=center;verticalAlign=middle;resizable=0;points=[];fontFamily=Comic Sans MS;" vertex="1" connectable="0" parent="S0VNaFS9qRUV_YJMW-pH-8">
          <mxGeometry x="-0.0296" y="-1" relative="1" as="geometry">
            <mxPoint as="offset" />
          </mxGeometry>
        </mxCell>
        <mxCell id="S0VNaFS9qRUV_YJMW-pH-5" value="CPU1" style="sketch=0;pointerEvents=1;shadow=0;dashed=0;html=1;strokeColor=#6c8ebf;fillColor=#dae8fc;aspect=fixed;labelPosition=center;verticalLabelPosition=bottom;verticalAlign=top;align=center;outlineConnect=0;shape=mxgraph.vvd.cpu;fontFamily=Comic Sans MS;" vertex="1" parent="1">
          <mxGeometry x="80" y="234" width="30" height="30" as="geometry" />
        </mxCell>
        <mxCell id="S0VNaFS9qRUV_YJMW-pH-9" style="edgeStyle=orthogonalEdgeStyle;rounded=0;orthogonalLoop=1;jettySize=auto;html=1;entryX=0;entryY=0.5;entryDx=0;entryDy=0;fontFamily=Comic Sans MS;" edge="1" parent="1" source="S0VNaFS9qRUV_YJMW-pH-6" target="S0VNaFS9qRUV_YJMW-pH-3">
          <mxGeometry relative="1" as="geometry" />
        </mxCell>
        <mxCell id="S0VNaFS9qRUV_YJMW-pH-13" value="Control" style="edgeLabel;html=1;align=center;verticalAlign=middle;resizable=0;points=[];fontFamily=Comic Sans MS;" vertex="1" connectable="0" parent="S0VNaFS9qRUV_YJMW-pH-9">
          <mxGeometry x="-0.0296" y="1" relative="1" as="geometry">
            <mxPoint as="offset" />
          </mxGeometry>
        </mxCell>
        <mxCell id="S0VNaFS9qRUV_YJMW-pH-6" value="CPU2" style="sketch=0;pointerEvents=1;shadow=0;dashed=0;html=1;strokeColor=#82b366;fillColor=#d5e8d4;aspect=fixed;labelPosition=center;verticalLabelPosition=bottom;verticalAlign=top;align=center;outlineConnect=0;shape=mxgraph.vvd.cpu;fontFamily=Comic Sans MS;" vertex="1" parent="1">
          <mxGeometry x="80" y="395" width="30" height="30" as="geometry" />
        </mxCell>
        <mxCell id="S0VNaFS9qRUV_YJMW-pH-10" style="edgeStyle=orthogonalEdgeStyle;rounded=0;orthogonalLoop=1;jettySize=auto;html=1;entryX=0;entryY=0.5;entryDx=0;entryDy=0;fontFamily=Comic Sans MS;" edge="1" parent="1" source="S0VNaFS9qRUV_YJMW-pH-7" target="S0VNaFS9qRUV_YJMW-pH-4">
          <mxGeometry relative="1" as="geometry" />
        </mxCell>
        <mxCell id="S0VNaFS9qRUV_YJMW-pH-14" value="Control" style="edgeLabel;html=1;align=center;verticalAlign=middle;resizable=0;points=[];fontFamily=Comic Sans MS;" vertex="1" connectable="0" parent="S0VNaFS9qRUV_YJMW-pH-10">
          <mxGeometry x="-0.0296" relative="1" as="geometry">
            <mxPoint as="offset" />
          </mxGeometry>
        </mxCell>
        <mxCell id="S0VNaFS9qRUV_YJMW-pH-7" value="CPU3" style="sketch=0;pointerEvents=1;shadow=0;dashed=0;html=1;strokeColor=#d79b00;fillColor=#ffe6cc;aspect=fixed;labelPosition=center;verticalLabelPosition=bottom;verticalAlign=top;align=center;outlineConnect=0;shape=mxgraph.vvd.cpu;fontFamily=Comic Sans MS;" vertex="1" parent="1">
          <mxGeometry x="80" y="530" width="30" height="30" as="geometry" />
        </mxCell>
        <mxCell id="S0VNaFS9qRUV_YJMW-pH-15" value="&lt;font color=&quot;#3399ff&quot;&gt;gc_heap 管理&lt;/font&gt;" style="text;html=1;align=center;verticalAlign=middle;resizable=0;points=[];autosize=1;strokeColor=none;fillColor=none;fontStyle=1;fontColor=#E2E8F2;fontFamily=Comic Sans MS;" vertex="1" parent="1">
          <mxGeometry x="210" y="170" width="100" height="30" as="geometry" />
        </mxCell>
        <mxCell id="S0VNaFS9qRUV_YJMW-pH-16" value="&lt;font color=&quot;#00cc00&quot;&gt;gc_heap 管理&lt;/font&gt;" style="text;html=1;align=center;verticalAlign=middle;resizable=0;points=[];autosize=1;strokeColor=none;fillColor=none;fontStyle=1;fontFamily=Comic Sans MS;" vertex="1" parent="1">
          <mxGeometry x="210" y="355" width="100" height="30" as="geometry" />
        </mxCell>
        <mxCell id="S0VNaFS9qRUV_YJMW-pH-17" value="&lt;font color=&quot;#ffb366&quot;&gt;gc_heap 管理&lt;/font&gt;" style="text;html=1;align=center;verticalAlign=middle;resizable=0;points=[];autosize=1;strokeColor=none;fillColor=none;fontStyle=1;fontFamily=Comic Sans MS;" vertex="1" parent="1">
          <mxGeometry x="210" y="490" width="100" height="30" as="geometry" />
        </mxCell>
        <mxCell id="S0VNaFS9qRUV_YJMW-pH-32" value="&lt;font color=&quot;#000000&quot; style=&quot;font-weight: normal; font-size: 10px;&quot;&gt;heap_segement&lt;/font&gt;" style="text;html=1;align=center;verticalAlign=middle;resizable=0;points=[];autosize=1;strokeColor=none;fillColor=none;fontStyle=1;fontColor=#E2E8F2;fontSize=10;fontFamily=Comic Sans MS;" vertex="1" parent="1">
          <mxGeometry x="210" y="300" width="100" height="30" as="geometry" />
        </mxCell>
        <mxCell id="S0VNaFS9qRUV_YJMW-pH-33" value="&lt;font color=&quot;#000000&quot; style=&quot;font-weight: normal; font-size: 10px;&quot;&gt;heap_segement&lt;/font&gt;" style="text;html=1;align=center;verticalAlign=middle;resizable=0;points=[];autosize=1;strokeColor=none;fillColor=none;fontStyle=1;fontColor=#E2E8F2;fontSize=10;fontFamily=Comic Sans MS;" vertex="1" parent="1">
          <mxGeometry x="380" y="300" width="100" height="30" as="geometry" />
        </mxCell>
        <mxCell id="S0VNaFS9qRUV_YJMW-pH-34" value="&lt;font color=&quot;#000000&quot; style=&quot;font-weight: normal; font-size: 10px;&quot;&gt;heap_segement&lt;/font&gt;" style="text;html=1;align=center;verticalAlign=middle;resizable=0;points=[];autosize=1;strokeColor=none;fillColor=none;fontStyle=1;fontColor=#E2E8F2;fontSize=10;fontFamily=Comic Sans MS;" vertex="1" parent="1">
          <mxGeometry x="570" y="300" width="100" height="30" as="geometry" />
        </mxCell>
        <mxCell id="S0VNaFS9qRUV_YJMW-pH-36" value="&lt;span style=&quot;font-size: 10px; font-weight: 400;&quot;&gt;&lt;font color=&quot;#000000&quot;&gt;小对象堆段1&lt;/font&gt;&lt;br&gt;&lt;font color=&quot;#000000&quot;&gt;（&lt;/font&gt;&lt;font color=&quot;#ff3333&quot;&gt;只保存第2代小对象&lt;/font&gt;&lt;font color=&quot;#000000&quot;&gt;）&lt;/font&gt;&lt;/span&gt;" style="text;html=1;align=center;verticalAlign=middle;resizable=0;points=[];autosize=1;strokeColor=none;fillColor=none;fontStyle=1;fontColor=#E2E8F2;fontFamily=Comic Sans MS;" vertex="1" parent="1">
          <mxGeometry x="215" y="210" width="130" height="40" as="geometry" />
        </mxCell>
        <mxCell id="S0VNaFS9qRUV_YJMW-pH-39" value="&lt;font color=&quot;#000000&quot;&gt;&lt;span style=&quot;font-size: 10px; font-weight: 400;&quot;&gt;大对象堆段1&lt;br&gt;（第2代）&lt;/span&gt;&lt;/font&gt;" style="text;html=1;align=center;verticalAlign=middle;resizable=0;points=[];autosize=1;strokeColor=none;fillColor=none;fontStyle=1;fontColor=#E2E8F2;fontFamily=Comic Sans MS;" vertex="1" parent="1">
          <mxGeometry x="555" y="210" width="80" height="40" as="geometry" />
        </mxCell>
        <mxCell id="S0VNaFS9qRUV_YJMW-pH-42" value="&lt;span style=&quot;font-size: 10px; font-weight: 400;&quot;&gt;&lt;font color=&quot;#000000&quot;&gt;最新的小对象堆段（短暂堆段）&lt;/font&gt;&lt;br&gt;&lt;font color=&quot;#ff3333&quot;&gt;保存0，1，2代小对象&lt;/font&gt;&lt;br&gt;&lt;/span&gt;" style="text;html=1;align=center;verticalAlign=middle;resizable=0;points=[];autosize=1;strokeColor=none;fillColor=none;fontStyle=1;fontColor=#E2E8F2;fontFamily=Comic Sans MS;" vertex="1" parent="1">
          <mxGeometry x="355" y="210" width="160" height="40" as="geometry" />
        </mxCell>
        <mxCell id="S0VNaFS9qRUV_YJMW-pH-46" value="&lt;font color=&quot;#000000&quot;&gt;&lt;span style=&quot;font-size: 10px; font-weight: 400;&quot;&gt;大对象堆段1&lt;br&gt;（第2代）&lt;/span&gt;&lt;/font&gt;" style="text;html=1;align=center;verticalAlign=middle;resizable=0;points=[];autosize=1;strokeColor=none;fillColor=none;fontStyle=1;fontColor=#E2E8F2;fontFamily=Comic Sans MS;" vertex="1" parent="1">
          <mxGeometry x="700" y="210" width="80" height="40" as="geometry" />
        </mxCell>
        <mxCell id="S0VNaFS9qRUV_YJMW-pH-47" value="&lt;font color=&quot;#000000&quot; style=&quot;font-weight: normal; font-size: 10px;&quot;&gt;heap_segement&lt;/font&gt;" style="text;html=1;align=center;verticalAlign=middle;resizable=0;points=[];autosize=1;strokeColor=none;fillColor=none;fontStyle=1;fontColor=#E2E8F2;fontSize=10;fontFamily=Comic Sans MS;" vertex="1" parent="1">
          <mxGeometry x="690" y="300" width="100" height="30" as="geometry" />
        </mxCell>
        <mxCell id="S0VNaFS9qRUV_YJMW-pH-48" value="&lt;font color=&quot;#000000&quot;&gt;&lt;span style=&quot;font-size: 10px; font-weight: 400;&quot;&gt;未分配区域&lt;/span&gt;&lt;/font&gt;" style="text;html=1;align=center;verticalAlign=middle;resizable=0;points=[];autosize=1;strokeColor=none;fillColor=none;fontStyle=1;fontColor=#E2E8F2;fontFamily=Comic Sans MS;" vertex="1" parent="1">
          <mxGeometry x="858" y="240" width="70" height="30" as="geometry" />
        </mxCell>
        <mxCell id="S0VNaFS9qRUV_YJMW-pH-52" value="" style="endArrow=none;html=1;rounded=0;fontFamily=Comic Sans MS;exitX=0.666;exitY=0;exitDx=0;exitDy=0;exitPerimeter=0;" edge="1" parent="1">
          <mxGeometry width="50" height="50" relative="1" as="geometry">
            <mxPoint x="810.1799999999998" y="300" as="sourcePoint" />
            <mxPoint x="810" y="200" as="targetPoint" />
          </mxGeometry>
        </mxCell>
        <mxCell id="S0VNaFS9qRUV_YJMW-pH-54" value="" style="endArrow=none;html=1;rounded=0;fontFamily=Comic Sans MS;exitX=0.666;exitY=0;exitDx=0;exitDy=0;exitPerimeter=0;" edge="1" parent="1">
          <mxGeometry width="50" height="50" relative="1" as="geometry">
            <mxPoint x="349.17999999999984" y="300" as="sourcePoint" />
            <mxPoint x="349" y="200" as="targetPoint" />
          </mxGeometry>
        </mxCell>
        <mxCell id="S0VNaFS9qRUV_YJMW-pH-55" value="" style="endArrow=none;html=1;rounded=0;fontFamily=Comic Sans MS;exitX=0.666;exitY=0;exitDx=0;exitDy=0;exitPerimeter=0;" edge="1" parent="1">
          <mxGeometry width="50" height="50" relative="1" as="geometry">
            <mxPoint x="520.1799999999998" y="300" as="sourcePoint" />
            <mxPoint x="520" y="200" as="targetPoint" />
          </mxGeometry>
        </mxCell>
        <mxCell id="S0VNaFS9qRUV_YJMW-pH-56" value="" style="endArrow=none;html=1;rounded=0;fontFamily=Comic Sans MS;exitX=0.666;exitY=0;exitDx=0;exitDy=0;exitPerimeter=0;" edge="1" parent="1">
          <mxGeometry width="50" height="50" relative="1" as="geometry">
            <mxPoint x="670.1799999999998" y="300" as="sourcePoint" />
            <mxPoint x="670" y="200" as="targetPoint" />
          </mxGeometry>
        </mxCell>
        <mxCell id="S0VNaFS9qRUV_YJMW-pH-61" value="" style="group" vertex="1" connectable="0" parent="1">
          <mxGeometry x="220" y="260" width="120" height="20" as="geometry" />
        </mxCell>
        <mxCell id="S0VNaFS9qRUV_YJMW-pH-58" value="小对象" style="rounded=0;whiteSpace=wrap;html=1;fontSize=10;" vertex="1" parent="S0VNaFS9qRUV_YJMW-pH-61">
          <mxGeometry width="40" height="20" as="geometry" />
        </mxCell>
        <mxCell id="S0VNaFS9qRUV_YJMW-pH-59" value="小对象" style="rounded=0;whiteSpace=wrap;html=1;fontSize=10;" vertex="1" parent="S0VNaFS9qRUV_YJMW-pH-61">
          <mxGeometry x="40" width="40" height="20" as="geometry" />
        </mxCell>
        <mxCell id="S0VNaFS9qRUV_YJMW-pH-60" value="小对象" style="rounded=0;whiteSpace=wrap;html=1;fontSize=10;" vertex="1" parent="S0VNaFS9qRUV_YJMW-pH-61">
          <mxGeometry x="80" width="40" height="20" as="geometry" />
        </mxCell>
        <mxCell id="S0VNaFS9qRUV_YJMW-pH-62" value="" style="group" vertex="1" connectable="0" parent="1">
          <mxGeometry x="370" y="260" width="120" height="20" as="geometry" />
        </mxCell>
        <mxCell id="S0VNaFS9qRUV_YJMW-pH-63" value="小对象" style="rounded=0;whiteSpace=wrap;html=1;fontSize=10;" vertex="1" parent="S0VNaFS9qRUV_YJMW-pH-62">
          <mxGeometry width="40" height="20" as="geometry" />
        </mxCell>
        <mxCell id="S0VNaFS9qRUV_YJMW-pH-64" value="小对象" style="rounded=0;whiteSpace=wrap;html=1;fontSize=10;" vertex="1" parent="S0VNaFS9qRUV_YJMW-pH-62">
          <mxGeometry x="40" width="40" height="20" as="geometry" />
        </mxCell>
        <mxCell id="S0VNaFS9qRUV_YJMW-pH-65" value="小对象" style="rounded=0;whiteSpace=wrap;html=1;fontSize=10;" vertex="1" parent="S0VNaFS9qRUV_YJMW-pH-62">
          <mxGeometry x="80" width="40" height="20" as="geometry" />
        </mxCell>
        <mxCell id="S0VNaFS9qRUV_YJMW-pH-77" value="大对象" style="rounded=0;whiteSpace=wrap;html=1;fontSize=10;" vertex="1" parent="1">
          <mxGeometry x="535" y="260" width="40" height="20" as="geometry" />
        </mxCell>
        <mxCell id="S0VNaFS9qRUV_YJMW-pH-78" value="大对象" style="rounded=0;whiteSpace=wrap;html=1;fontSize=10;" vertex="1" parent="1">
          <mxGeometry x="575" y="260" width="40" height="20" as="geometry" />
        </mxCell>
        <mxCell id="S0VNaFS9qRUV_YJMW-pH-79" value="大对象" style="rounded=0;whiteSpace=wrap;html=1;fontSize=10;" vertex="1" parent="1">
          <mxGeometry x="615" y="260" width="40" height="20" as="geometry" />
        </mxCell>
        <mxCell id="S0VNaFS9qRUV_YJMW-pH-80" value="大对象" style="rounded=0;whiteSpace=wrap;html=1;fontSize=10;" vertex="1" parent="1">
          <mxGeometry x="680" y="260" width="40" height="20" as="geometry" />
        </mxCell>
        <mxCell id="S0VNaFS9qRUV_YJMW-pH-81" value="大对象" style="rounded=0;whiteSpace=wrap;html=1;fontSize=10;" vertex="1" parent="1">
          <mxGeometry x="720" y="260" width="40" height="20" as="geometry" />
        </mxCell>
        <mxCell id="S0VNaFS9qRUV_YJMW-pH-82" value="大对象" style="rounded=0;whiteSpace=wrap;html=1;fontSize=10;" vertex="1" parent="1">
          <mxGeometry x="760" y="260" width="40" height="20" as="geometry" />
        </mxCell>
        <mxCell id="S0VNaFS9qRUV_YJMW-pH-86" value="&lt;h1 style=&quot;border-color: var(--border-color); text-align: left; font-size: 10px;&quot;&gt;&lt;span style=&quot;font-weight: normal;&quot;&gt;当创建新对象时，该堆段空间不足时，会创建新的堆段。对于小对象堆，最新创建的小对象堆段称之为“短暂堆段”，第0代与第1代只能保存在短暂堆段中&lt;/span&gt;&lt;/h1&gt;" style="rounded=1;whiteSpace=wrap;html=1;fillColor=#dae8fc;strokeColor=#6c8ebf;glass=0;shadow=0;arcSize=19;sketch=1;curveFitting=1;jiggle=2;" vertex="1" parent="1">
          <mxGeometry x="340" y="100" width="190" height="60" as="geometry" />
        </mxCell>
        <mxCell id="S0VNaFS9qRUV_YJMW-pH-88" style="edgeStyle=orthogonalEdgeStyle;rounded=0;orthogonalLoop=1;jettySize=auto;html=1;entryX=0.708;entryY=1.004;entryDx=0;entryDy=0;entryPerimeter=0;" edge="1" parent="1" source="S0VNaFS9qRUV_YJMW-pH-86" target="S0VNaFS9qRUV_YJMW-pH-2">
          <mxGeometry relative="1" as="geometry" />
        </mxCell>
        <mxCell id="S0VNaFS9qRUV_YJMW-pH-89" value="" style="rounded=0;whiteSpace=wrap;html=1;fillColor=none;dashed=1;" vertex="1" parent="1">
          <mxGeometry x="50" y="80" width="960" height="520" as="geometry" />
        </mxCell>
        <mxCell id="S0VNaFS9qRUV_YJMW-pH-91" value="托管堆" style="text;html=1;strokeColor=none;fillColor=none;align=center;verticalAlign=middle;whiteSpace=wrap;rounded=0;fontStyle=1" vertex="1" parent="1">
          <mxGeometry x="54" y="84" width="45" height="20" as="geometry" />
        </mxCell>
      </root>
    </mxGraphModel>
  </diagram>
</mxfile>
